<svg width="512" height="512" viewBox="0 0 512 512" fill="none" xmlns="http://www.w3.org/2000/svg">
<g clip-path="url(#clip0_35_8)">
<circle cx="256" cy="256" r="256" fill="black"/>
<path d="M156.358 219.499L99.9608 266.104L156.553 312.906H128.159L88.2115 280.008V312.906H70V196H88.2115V252.397L127.768 219.499H156.358Z" fill="white"/>
<path d="M186.505 220.282V312.906H168.294V220.282H186.505Z" fill="white"/>
<path d="M293.487 219.89L257.456 313.298H234.544L198.317 219.89H217.704L246.098 292.345L274.1 219.89H293.487Z" fill="white"/>
<path d="M370 266.692C370 251.026 357.467 238.493 341.801 238.493C326.136 238.493 313.603 251.026 313.603 266.692C313.603 282.358 326.136 294.89 341.801 294.89C357.467 294.89 370 282.358 370 266.692ZM388.211 266.692C388.211 292.345 367.454 313.102 341.801 313.102C316.149 313.102 295.391 292.345 295.391 266.692C295.391 241.039 316.149 220.282 341.801 220.282C367.454 220.282 388.211 241.039 388.211 266.692Z" fill="#00AEFF"/>
<path d="M399.996 306.444C399.996 301.157 404.304 296.849 409.591 296.849C415.074 296.849 419.382 301.157 419.382 306.444C419.382 311.927 415.074 316.235 409.591 316.235C404.304 316.235 399.996 311.927 399.996 306.444Z" fill="#00AEFF"/>
</g>
<defs>
<clipPath id="clip0_35_8">
<rect width="512" height="512" fill="white"/>
</clipPath>
</defs>
</svg>
